<?xml version="1.0" encoding="utf-8"?>
<!-- Generator: Adobe Illustrator 26.5.0, SVG Export Plug-In . SVG Version: 6.00 Build 0)  -->
<svg version="1.1" id="Ebene_1" xmlns="http://www.w3.org/2000/svg" xmlns:xlink="http://www.w3.org/1999/xlink" x="0px" y="0px"
	 viewBox="0 0 480 466.5" enable-background="new 0 0 480 466.5" xml:space="preserve">
<g>
	<g>
		
			<linearGradient id="SVGID_1_" gradientUnits="userSpaceOnUse" x1="391.5345" y1="420.0257" x2="71.5345" y2="96.0257" gradientTransform="matrix(1 0 0 -1 0 482.9797)">
			<stop  offset="0" style="stop-color:#E93068"/>
			<stop  offset="1" style="stop-color:#FA2EE8"/>
		</linearGradient>
		<path fill="url(#SVGID_1_)" d="M232.2,265.9c-47.1-78-38.7-174,14-242c-37.7,0-75.8,10-110.4,30.9C34.5,116,2,247.6,63.2,348.9
			c61.2,101.3,153.2,111.2,254.4,50.1c21.6-13.1,41.9-28.3,59.9-45.3C320.6,356.7,270.4,329,232.2,265.9z"/>
		
			<linearGradient id="SVGID_00000173843719251928764360000003629621253563918741_" gradientUnits="userSpaceOnUse" x1="414.1853" y1="397.6546" x2="94.1852" y2="73.6547" gradientTransform="matrix(1 0 0 -1 0 482.9797)">
			<stop  offset="0" style="stop-color:#E93068"/>
			<stop  offset="1" style="stop-color:#FA2EE8"/>
		</linearGradient>
		<path fill="url(#SVGID_00000173843719251928764360000003629621253563918741_)" d="M429.8,127.3C389.6,60.6,318.8,23.8,246.2,23.9
			c-52.6,68-61.1,164-14,242c38.2,63.2,88.4,90.8,145.3,87.8C443.6,291.4,478,206.9,429.8,127.3z"/>
		
			<linearGradient id="SVGID_00000108306606133902934520000003840013296418083221_" gradientUnits="userSpaceOnUse" x1="201.3257" y1="188.8687" x2="621.3816" y2="188.8687">
			<stop  offset="0" style="stop-color:#E93068"/>
			<stop  offset="1" style="stop-color:#FA2EE8"/>
		</linearGradient>
		<path opacity="0.31" fill="url(#SVGID_00000108306606133902934520000003840013296418083221_)" d="M429.8,127.3
			C389.6,60.6,318.8,23.8,246.2,23.9c-52.6,68-61.1,164-14,242c38.2,63.2,88.4,90.8,145.3,87.8C443.6,291.4,478,206.9,429.8,127.3z"
			/>
	</g>
</g>
<g>
	<polygon points="169.5,199.5 189.9,430.5 233.2,333 344.5,357.3 	"/>
	<circle cx="135.3" cy="127.4" r="22.6"/>
	<path d="M134.2,190.4c-13.6,0-27.3-4.3-38.9-13.3l0,0c-27.8-21.5-32.9-61.6-11.3-89.3s61.6-32.9,89.3-11.3
		c27.8,21.5,32.9,61.6,11.3,89.3C172.1,181.9,153.2,190.4,134.2,190.4z M104.5,165.2c21.2,16.4,51.9,12.5,68.3-8.7
		c16.4-21.2,12.5-51.9-8.7-68.3c-21.2-16.4-51.9-12.5-68.3,8.7C79.3,118.1,83.2,148.7,104.5,165.2L104.5,165.2z"/>
</g>
<path fill="#FFFFFF" d="M273,247.5l-7.5-28.6H233l-7.3,28.6h-25.8L232,128.9h36l32.1,118.7H273z M250,153.5h-1.4l-11.6,44.9h24.5
	L250,153.5z M371.5,247.5L364,219h-32.5l-7.3,28.6h-25.8l32.1-118.7h36l32.1,118.7H371.5z M348.5,153.5h-1.4l-11.6,44.9h24.5
	L348.5,153.5z"/>
</svg>
